<svg version="1.1" id="Layer_1" xmlns="http://www.w3.org/2000/svg" xmlns:xlink="http://www.w3.org/1999/xlink" x="0px" y="0px"
	 width="100%" viewBox="0 0 1320 1336" enable-background="new 0 0 1320 1336" xml:space="preserve">
<path fill="#FFFFFF" opacity="1.000000" stroke="none" 
	d="
M734.000000,1337.000000 
	C489.333344,1337.000000 245.166672,1337.000000 1.000000,1337.000000 
	C1.000000,891.666687 1.000000,446.333344 1.000000,1.000000 
	C441.000000,1.000000 881.000000,1.000000 1321.000000,1.000000 
	C1321.000000,446.333344 1321.000000,891.666687 1321.000000,1337.000000 
	C1125.500000,1337.000000 930.000000,1337.000000 734.000000,1337.000000 
M634.173096,1075.502808 
	C634.545349,1092.633545 633.321106,1109.979370 635.593384,1126.854248 
	C642.031799,1174.668945 665.654114,1213.586670 702.471497,1244.029297 
	C745.769531,1279.830322 796.289062,1291.256958 851.205017,1282.953491 
	C906.098328,1274.653442 947.630615,1245.948242 975.120117,1197.569336 
	C1001.340210,1151.424561 1004.052917,1101.527588 997.341064,1050.405029 
	C995.320679,1035.016357 991.906433,1019.810791 989.000000,1003.801208 
	C994.890076,1004.770630 1000.117798,1005.470581 1005.276733,1006.511475 
	C1018.787537,1009.237305 1032.161011,1012.907776 1045.785767,1014.744019 
	C1067.112183,1017.618347 1088.590088,1017.627747 1110.026123,1014.984009 
	C1133.835083,1012.047607 1156.657837,1005.877991 1177.716187,994.179199 
	C1256.715210,950.291931 1291.903931,856.343689 1267.935547,770.100159 
	C1251.413574,710.651062 1212.409912,670.549927 1155.198730,648.100830 
	C1141.115845,642.574951 1126.647583,637.856628 1111.247070,638.065369 
	C1026.173218,639.218018 941.101929,640.560730 856.027893,641.705444 
	C789.603394,642.599243 723.175903,643.265198 656.750916,644.126770 
	C647.836426,644.242371 638.929016,644.911194 629.962463,645.326416 
	C629.891602,646.725708 629.808960,647.547302 629.814148,648.368347 
	C630.121521,696.647217 630.184692,744.929382 630.814819,793.204041 
	C631.577698,851.650452 633.011414,910.088074 633.784790,968.534363 
	C634.252197,1003.852966 634.017273,1039.180786 634.173096,1075.502808 
M462.498291,646.201721 
	C441.523438,646.523621 420.548889,646.867676 399.573669,647.163452 
	C332.139038,648.114441 264.704132,649.044373 197.269577,650.000305 
	C194.775467,650.035583 192.231003,649.976013 189.799484,650.434875 
	C164.433762,655.221436 141.423737,665.772705 122.226387,682.705444 
	C82.231628,717.982178 65.481262,763.020569 73.221222,815.656494 
	C80.704475,866.546631 109.118965,902.409424 157.387482,921.344360 
	C191.571167,934.754089 226.949829,934.369751 262.566010,928.459656 
	C271.189819,927.028625 279.782471,925.410156 288.787994,923.806885 
	C287.303192,930.811340 285.900940,937.248230 284.577393,943.701294 
	C279.134583,970.238220 275.887665,996.853760 281.067657,1023.880249 
	C286.241699,1050.875854 296.503906,1075.616455 315.461761,1095.745117 
	C352.555023,1135.129150 398.985291,1149.990601 451.783630,1142.402588 
	C508.567963,1134.241943 545.122131,1099.947998 565.649109,1047.469849 
	C572.345154,1030.350952 571.722656,1012.359741 571.352722,994.350586 
	C570.142212,935.420105 569.006042,876.485535 568.347168,817.546936 
	C567.795898,768.234741 567.951172,718.914490 567.801453,669.597839 
	C567.778442,662.023193 567.798279,654.448425 567.798279,646.201721 
	C532.091980,646.201721 497.795532,646.201721 462.498291,646.201721 
M1038.243164,566.812866 
	C1061.061279,556.445740 1080.797241,541.954224 1095.861694,521.834656 
	C1121.765381,487.238617 1129.016968,448.061951 1121.909424,406.095490 
	C1110.778687,340.374115 1058.698120,286.152435 980.201721,283.987976 
	C961.729797,283.478607 943.808472,286.915039 925.863586,290.495850 
	C917.134338,292.237732 908.383118,293.869385 899.165100,295.642670 
	C899.748840,293.052429 900.085144,291.427307 900.482361,289.817230 
	C907.522034,261.283966 910.010681,232.524796 906.112183,203.210846 
	C898.238892,144.008560 859.332397,99.057526 801.583984,84.401588 
	C788.830383,81.164871 775.209717,78.811142 762.233093,79.685005 
	C748.728088,80.594452 735.211182,85.002708 722.233459,89.442093 
	C661.474548,110.226433 625.458069,160.534988 625.895691,223.084763 
	C626.593506,322.830902 627.245178,422.577454 628.085815,522.322449 
	C628.246765,541.421143 629.189331,560.513306 629.783264,580.001160 
	C632.173828,580.001160 633.967285,580.020020 635.760254,579.998413 
	C683.211853,579.427002 730.662903,578.804504 778.115051,578.287231 
	C849.882996,577.504822 921.650940,576.672913 993.421021,576.151733 
	C1008.843994,576.039673 1023.384766,572.825073 1038.243164,566.812866 
M562.635559,380.514832 
	C562.105957,357.057495 561.461365,333.602051 561.077393,310.142334 
	C560.644043,283.665985 560.485718,257.185211 560.122864,230.707535 
	C559.988281,220.887192 561.080261,210.761200 559.089294,201.305923 
	C551.168152,163.686234 531.867493,132.853973 500.076508,110.837776 
	C470.562439,90.398445 437.549530,82.341339 401.710388,85.907333 
	C347.092560,91.341820 309.971222,120.483276 289.243378,170.407898 
	C275.366821,203.830566 276.062531,238.922272 281.621246,274.069183 
	C283.084412,283.320801 284.806122,292.531525 286.554413,302.597565 
	C281.224426,301.523560 276.495575,300.794159 271.885223,299.605072 
	C244.083923,292.434479 216.071747,288.737030 187.452423,294.002472 
	C161.864136,298.710205 137.982986,307.577026 118.536255,325.352844 
	C75.294296,364.879364 57.458763,413.560974 69.134224,471.500275 
	C79.779686,524.328247 111.103363,560.004089 161.938782,578.222229 
	C178.476700,584.148987 195.609131,584.857361 213.084915,584.380066 
	C242.712006,583.570923 272.371826,584.057617 302.013489,583.665955 
	C387.748260,582.533081 473.480835,581.233643 559.214355,580.003113 
	C560.808167,579.980225 562.402649,580.000244 562.774353,580.000244 
	C562.774353,513.360718 562.774353,447.431488 562.635559,380.514832 
z"/>
<path fill="#CD2119" opacity="1.000000" stroke="none" 
	d="
M634.135498,1075.003662 
	C634.017273,1039.180786 634.252197,1003.852966 633.784790,968.534363 
	C633.011414,910.088074 631.577698,851.650452 630.814819,793.204041 
	C630.184692,744.929382 630.121521,696.647217 629.814148,648.368347 
	C629.808960,647.547302 629.891602,646.725708 629.962463,645.326416 
	C638.929016,644.911194 647.836426,644.242371 656.750916,644.126770 
	C723.175903,643.265198 789.603394,642.599243 856.027893,641.705444 
	C941.101929,640.560730 1026.173218,639.218018 1111.247070,638.065369 
	C1126.647583,637.856628 1141.115845,642.574951 1155.198730,648.100830 
	C1212.409912,670.549927 1251.413574,710.651062 1267.935547,770.100159 
	C1291.903931,856.343689 1256.715210,950.291931 1177.716187,994.179199 
	C1156.657837,1005.877991 1133.835083,1012.047607 1110.026123,1014.984009 
	C1088.590088,1017.627747 1067.112183,1017.618347 1045.785767,1014.744019 
	C1032.161011,1012.907776 1018.787537,1009.237305 1005.276733,1006.511475 
	C1000.117798,1005.470581 994.890076,1004.770630 989.000000,1003.801208 
	C991.906433,1019.810791 995.320679,1035.016357 997.341064,1050.405029 
	C1004.052917,1101.527588 1001.340210,1151.424561 975.120117,1197.569336 
	C947.630615,1245.948242 906.098328,1274.653442 851.205017,1282.953491 
	C796.289062,1291.256958 745.769531,1279.830322 702.471497,1244.029297 
	C665.654114,1213.586670 642.031799,1174.668945 635.593384,1126.854248 
	C633.321106,1109.979370 634.545349,1092.633545 634.135498,1075.003662 
M868.382751,1157.919312 
	C883.032471,1146.606567 893.002258,1131.987793 899.068787,1114.588501 
	C906.960938,1091.952759 905.589050,1069.061523 900.456604,1046.240601 
	C894.895691,1021.514587 883.593018,999.137146 870.928467,977.397766 
	C865.212097,967.585449 860.134094,957.409119 859.042114,945.976929 
	C856.659729,921.036377 866.524414,901.115662 885.874756,885.995056 
	C911.441772,866.016724 942.362061,865.415222 972.627075,882.939392 
	C986.389099,890.907837 1000.273376,898.912476 1014.842224,905.180847 
	C1035.744141,914.174133 1057.712891,919.677856 1080.835327,917.098572 
	C1143.890015,910.065063 1171.515747,853.151123 1161.226196,805.438721 
	C1151.923706,762.303345 1119.161133,739.852600 1077.390747,736.247253 
	C1063.895020,735.082397 1050.162720,736.685486 1036.537842,736.981018 
	C992.762085,737.930420 948.989136,739.079529 905.208862,739.737305 
	C860.074280,740.415344 814.930542,740.473328 769.794861,741.097595 
	C756.879517,741.276306 743.978271,742.479492 730.905701,743.222229 
	C730.905701,745.285095 730.893738,746.602356 730.907532,747.919434 
	C731.241272,779.879150 731.496216,811.839905 731.934204,843.798218 
	C732.477295,883.428955 733.219299,923.056824 733.788391,962.687195 
	C734.340698,1001.152893 734.599854,1039.623779 735.380127,1078.084473 
	C735.628540,1090.332520 735.691772,1102.878662 738.351501,1114.724365 
	C744.669434,1142.862549 760.890076,1163.690308 789.217163,1172.349731 
	C817.447205,1180.979248 843.730835,1174.891235 868.382751,1157.919312 
z"/>
<path fill="#CD2119" opacity="1.000000" stroke="none" 
	d="
M462.998688,646.201721 
	C497.795532,646.201721 532.091980,646.201721 567.798279,646.201721 
	C567.798279,654.448425 567.778442,662.023193 567.801453,669.597839 
	C567.951172,718.914490 567.795898,768.234741 568.347168,817.546936 
	C569.006042,876.485535 570.142212,935.420105 571.352722,994.350586 
	C571.722656,1012.359741 572.345154,1030.350952 565.649109,1047.469849 
	C545.122131,1099.947998 508.567963,1134.241943 451.783630,1142.402588 
	C398.985291,1149.990601 352.555023,1135.129150 315.461761,1095.745117 
	C296.503906,1075.616455 286.241699,1050.875854 281.067657,1023.880249 
	C275.887665,996.853760 279.134583,970.238220 284.577393,943.701294 
	C285.900940,937.248230 287.303192,930.811340 288.787994,923.806885 
	C279.782471,925.410156 271.189819,927.028625 262.566010,928.459656 
	C226.949829,934.369751 191.571167,934.754089 157.387482,921.344360 
	C109.118965,902.409424 80.704475,866.546631 73.221222,815.656494 
	C65.481262,763.020569 82.231628,717.982178 122.226387,682.705444 
	C141.423737,665.772705 164.433762,655.221436 189.799484,650.434875 
	C192.231003,649.976013 194.775467,650.035583 197.269577,650.000305 
	C264.704132,649.044373 332.139038,648.114441 399.573669,647.163452 
	C420.548889,646.867676 441.523438,646.523621 462.998688,646.201721 
M303.632843,726.269348 
	C279.993195,726.588562 256.346680,726.666504 232.717026,727.337952 
	C222.296585,727.634033 211.561905,727.778992 201.574661,730.345703 
	C172.813766,737.737305 155.680527,757.947571 155.186295,788.137451 
	C154.688980,818.516357 178.207306,855.182922 224.859375,857.805847 
	C250.900864,859.270020 274.966644,851.030518 297.681763,838.719116 
	C303.088013,835.789001 308.355133,832.595093 313.818451,829.778992 
	C321.977020,825.573608 330.388184,821.861694 339.842438,822.324463 
	C367.278595,823.667419 391.552429,849.054993 392.045715,876.559021 
	C392.294922,890.455383 387.162354,902.545959 379.896881,913.902771 
	C368.198822,932.188232 360.485657,951.888916 356.492310,973.298035 
	C348.121857,1018.174194 381.963013,1051.202393 412.374939,1056.695068 
	C445.042389,1062.595093 479.240234,1049.428833 491.498108,1011.573975 
	C496.061340,997.481628 495.579315,983.192749 495.197083,968.641846 
	C493.780609,914.718811 492.974548,860.779480 491.993347,806.845276 
	C491.566406,783.374817 491.306488,759.901245 490.881561,736.430725 
	C490.807648,732.348633 490.289093,728.274658 489.981689,724.272095 
	C488.895172,724.141541 488.410706,724.027466 487.927673,724.033264 
	C426.819885,724.764893 365.712189,725.505493 303.632843,726.269348 
z"/>
<path fill="#CD2119" opacity="1.000000" stroke="none" 
	d="
M1037.872314,566.905273 
	C1023.384766,572.825073 1008.843994,576.039673 993.421021,576.151733 
	C921.650940,576.672913 849.882996,577.504822 778.115051,578.287231 
	C730.662903,578.804504 683.211853,579.427002 635.760254,579.998413 
	C633.967285,580.020020 632.173828,580.001160 629.783264,580.001160 
	C629.189331,560.513306 628.246765,541.421143 628.085815,522.322449 
	C627.245178,422.577454 626.593506,322.830902 625.895691,223.084763 
	C625.458069,160.534988 661.474548,110.226433 722.233459,89.442093 
	C735.211182,85.002708 748.728088,80.594452 762.233093,79.685005 
	C775.209717,78.811142 788.830383,81.164871 801.583984,84.401588 
	C859.332397,99.057526 898.238892,144.008560 906.112183,203.210846 
	C910.010681,232.524796 907.522034,261.283966 900.482361,289.817230 
	C900.085144,291.427307 899.748840,293.052429 899.165100,295.642670 
	C908.383118,293.869385 917.134338,292.237732 925.863586,290.495850 
	C943.808472,286.915039 961.729797,283.478607 980.201721,283.987976 
	C1058.698120,286.152435 1110.778687,340.374115 1121.909424,406.095490 
	C1129.016968,448.061951 1121.765381,487.238617 1095.861694,521.834656 
	C1080.797241,541.954224 1061.061279,556.445740 1037.872314,566.905273 
M829.205933,212.364609 
	C823.480408,195.784103 812.908569,183.269272 797.801880,174.388870 
	C769.743286,157.894699 732.801758,164.788498 715.103149,190.083908 
	C705.967712,203.140671 703.195068,218.157867 703.158264,233.646255 
	C703.104065,256.445038 703.778015,279.244507 703.952271,302.045135 
	C704.404114,361.171326 704.721130,420.298492 705.182312,479.424591 
	C705.239014,486.690857 705.845520,493.952881 706.228210,501.856384 
	C709.550598,501.856384 712.514465,501.856384 715.478333,501.856384 
	C786.760315,501.856323 858.042358,501.902710 929.324219,501.819244 
	C944.626953,501.801331 960.085999,502.615051 975.201599,500.793427 
	C1016.917786,495.766174 1043.259521,465.769714 1037.774780,422.835999 
	C1034.555298,397.635223 1020.802185,378.856110 997.337769,367.914551 
	C974.809204,357.409424 951.995605,359.609283 930.025269,368.600433 
	C914.448486,374.975098 899.645935,383.468323 885.052551,391.968323 
	C860.515747,406.259918 831.503418,399.849457 815.687134,382.417633 
	C802.280212,367.641388 795.720764,344.738403 807.083679,323.836914 
	C813.963806,311.181183 820.130127,298.029358 825.367432,284.612579 
	C834.441650,261.366577 838.054871,237.487335 829.205933,212.364609 
z"/>
<path fill="#CD2119" opacity="1.000000" stroke="none" 
	d="
M562.704956,381.008545 
	C562.774353,447.431488 562.774353,513.360718 562.774353,580.000244 
	C562.402649,580.000244 560.808167,579.980225 559.214355,580.003113 
	C473.480835,581.233643 387.748260,582.533081 302.013489,583.665955 
	C272.371826,584.057617 242.712006,583.570923 213.084915,584.380066 
	C195.609131,584.857361 178.476700,584.148987 161.938782,578.222229 
	C111.103363,560.004089 79.779686,524.328247 69.134224,471.500275 
	C57.458763,413.560974 75.294296,364.879364 118.536255,325.352844 
	C137.982986,307.577026 161.864136,298.710205 187.452423,294.002472 
	C216.071747,288.737030 244.083923,292.434479 271.885223,299.605072 
	C276.495575,300.794159 281.224426,301.523560 286.554413,302.597565 
	C284.806122,292.531525 283.084412,283.320801 281.621246,274.069183 
	C276.062531,238.922272 275.366821,203.830566 289.243378,170.407898 
	C309.971222,120.483276 347.092560,91.341820 401.710388,85.907333 
	C437.549530,82.341339 470.562439,90.398445 500.076508,110.837776 
	C531.867493,132.853973 551.168152,163.686234 559.089294,201.305923 
	C561.080261,210.761200 559.988281,220.887192 560.122864,230.707535 
	C560.485718,257.185211 560.644043,283.665985 561.077393,310.142334 
	C561.461365,333.602051 562.105957,357.057495 562.704956,381.008545 
M396.491913,506.203064 
	C426.066284,505.669281 455.640656,505.135498 485.882233,504.589691 
	C485.882233,500.460754 485.901184,497.500580 485.879425,494.540710 
	C485.577271,453.409058 485.423035,412.275574 484.921661,371.146332 
	C484.375732,326.359863 483.570709,281.576080 482.709259,236.794418 
	C482.578796,230.012787 482.136780,223.126633 480.801697,216.497726 
	C474.840546,186.900101 446.787415,165.317627 417.654266,168.332748 
	C387.090363,171.495941 366.264160,187.956116 356.118683,216.945663 
	C348.165833,239.669861 351.110535,262.476349 359.557098,284.292419 
	C365.162170,298.769318 372.931000,312.430359 380.054413,326.290558 
	C385.690277,337.256409 389.010925,348.676331 386.505188,360.899323 
	C379.067871,397.178772 339.039825,415.470032 305.778046,398.204010 
	C295.463470,392.849701 285.660339,386.461761 275.171509,381.501953 
	C256.212433,372.536743 236.480286,366.128906 215.034195,368.989532 
	C188.061218,372.587402 168.056335,386.051422 157.744186,411.764130 
	C146.583817,439.591736 150.209564,465.757050 170.790314,487.775757 
	C187.247360,505.382568 209.305878,510.511292 232.807510,509.667450 
	C249.940216,509.052277 267.050873,507.586060 284.184906,507.293762 
	C321.281708,506.660889 358.387207,506.537811 396.491913,506.203064 
z"/>
<path fill="#FFFFFF" opacity="1.000000" stroke="none" 
	d="
M868.104614,1158.141846 
	C843.730835,1174.891235 817.447205,1180.979248 789.217163,1172.349731 
	C760.890076,1163.690308 744.669434,1142.862549 738.351501,1114.724365 
	C735.691772,1102.878662 735.628540,1090.332520 735.380127,1078.084473 
	C734.599854,1039.623779 734.340698,1001.152893 733.788391,962.687195 
	C733.219299,923.056824 732.477295,883.428955 731.934204,843.798218 
	C731.496216,811.839905 731.241272,779.879150 730.907532,747.919434 
	C730.893738,746.602356 730.905701,745.285095 730.905701,743.222229 
	C743.978271,742.479492 756.879517,741.276306 769.794861,741.097595 
	C814.930542,740.473328 860.074280,740.415344 905.208862,739.737305 
	C948.989136,739.079529 992.762085,737.930420 1036.537842,736.981018 
	C1050.162720,736.685486 1063.895020,735.082397 1077.390747,736.247253 
	C1119.161133,739.852600 1151.923706,762.303345 1161.226196,805.438721 
	C1171.515747,853.151123 1143.890015,910.065063 1080.835327,917.098572 
	C1057.712891,919.677856 1035.744141,914.174133 1014.842224,905.180847 
	C1000.273376,898.912476 986.389099,890.907837 972.627075,882.939392 
	C942.362061,865.415222 911.441772,866.016724 885.874756,885.995056 
	C866.524414,901.115662 856.659729,921.036377 859.042114,945.976929 
	C860.134094,957.409119 865.212097,967.585449 870.928467,977.397766 
	C883.593018,999.137146 894.895691,1021.514587 900.456604,1046.240601 
	C905.589050,1069.061523 906.960938,1091.952759 899.068787,1114.588501 
	C893.002258,1131.987793 883.032471,1146.606567 868.104614,1158.141846 
z"/>
<path fill="#FFFFFF" opacity="1.000000" stroke="none" 
	d="
M304.118652,726.257446 
	C365.712189,725.505493 426.819885,724.764893 487.927673,724.033264 
	C488.410706,724.027466 488.895172,724.141541 489.981689,724.272095 
	C490.289093,728.274658 490.807648,732.348633 490.881561,736.430725 
	C491.306488,759.901245 491.566406,783.374817 491.993347,806.845276 
	C492.974548,860.779480 493.780609,914.718811 495.197083,968.641846 
	C495.579315,983.192749 496.061340,997.481628 491.498108,1011.573975 
	C479.240234,1049.428833 445.042389,1062.595093 412.374939,1056.695068 
	C381.963013,1051.202393 348.121857,1018.174194 356.492310,973.298035 
	C360.485657,951.888916 368.198822,932.188232 379.896881,913.902771 
	C387.162354,902.545959 392.294922,890.455383 392.045715,876.559021 
	C391.552429,849.054993 367.278595,823.667419 339.842438,822.324463 
	C330.388184,821.861694 321.977020,825.573608 313.818451,829.778992 
	C308.355133,832.595093 303.088013,835.789001 297.681763,838.719116 
	C274.966644,851.030518 250.900864,859.270020 224.859375,857.805847 
	C178.207306,855.182922 154.688980,818.516357 155.186295,788.137451 
	C155.680527,757.947571 172.813766,737.737305 201.574661,730.345703 
	C211.561905,727.778992 222.296585,727.634033 232.717026,727.337952 
	C256.346680,726.666504 279.993195,726.588562 304.118652,726.257446 
z"/>
<path fill="#FFFFFF" opacity="1.000000" stroke="none" 
	d="
M829.393860,212.711823 
	C838.054871,237.487335 834.441650,261.366577 825.367432,284.612579 
	C820.130127,298.029358 813.963806,311.181183 807.083679,323.836914 
	C795.720764,344.738403 802.280212,367.641388 815.687134,382.417633 
	C831.503418,399.849457 860.515747,406.259918 885.052551,391.968323 
	C899.645935,383.468323 914.448486,374.975098 930.025269,368.600433 
	C951.995605,359.609283 974.809204,357.409424 997.337769,367.914551 
	C1020.802185,378.856110 1034.555298,397.635223 1037.774780,422.835999 
	C1043.259521,465.769714 1016.917786,495.766174 975.201599,500.793427 
	C960.085999,502.615051 944.626953,501.801331 929.324219,501.819244 
	C858.042358,501.902710 786.760315,501.856323 715.478333,501.856384 
	C712.514465,501.856384 709.550598,501.856384 706.228210,501.856384 
	C705.845520,493.952881 705.239014,486.690857 705.182312,479.424591 
	C704.721130,420.298492 704.404114,361.171326 703.952271,302.045135 
	C703.778015,279.244507 703.104065,256.445038 703.158264,233.646255 
	C703.195068,218.157867 705.967712,203.140671 715.103149,190.083908 
	C732.801758,164.788498 769.743286,157.894699 797.801880,174.388870 
	C812.908569,183.269272 823.480408,195.784103 829.393860,212.711823 
z"/>
<path fill="#FFFFFF" opacity="1.000000" stroke="none" 
	d="
M395.990540,506.204651 
	C358.387207,506.537811 321.281708,506.660889 284.184906,507.293762 
	C267.050873,507.586060 249.940216,509.052277 232.807510,509.667450 
	C209.305878,510.511292 187.247360,505.382568 170.790314,487.775757 
	C150.209564,465.757050 146.583817,439.591736 157.744186,411.764130 
	C168.056335,386.051422 188.061218,372.587402 215.034195,368.989532 
	C236.480286,366.128906 256.212433,372.536743 275.171509,381.501953 
	C285.660339,386.461761 295.463470,392.849701 305.778046,398.204010 
	C339.039825,415.470032 379.067871,397.178772 386.505188,360.899323 
	C389.010925,348.676331 385.690277,337.256409 380.054413,326.290558 
	C372.931000,312.430359 365.162170,298.769318 359.557098,284.292419 
	C351.110535,262.476349 348.165833,239.669861 356.118683,216.945663 
	C366.264160,187.956116 387.090363,171.495941 417.654266,168.332748 
	C446.787415,165.317627 474.840546,186.900101 480.801697,216.497726 
	C482.136780,223.126633 482.578796,230.012787 482.709259,236.794418 
	C483.570709,281.576080 484.375732,326.359863 484.921661,371.146332 
	C485.423035,412.275574 485.577271,453.409058 485.879425,494.540710 
	C485.901184,497.500580 485.882233,500.460754 485.882233,504.589691 
	C455.640656,505.135498 426.066284,505.669281 395.990540,506.204651 
z"/>
</svg>